<mxfile host="app.diagrams.net" modified="2020-11-11T20:44:11.944Z" agent="5.0 (X11; Linux x86_64) AppleWebKit/537.36 (KHTML, like Gecko) Chrome/86.0.4240.183 Safari/537.36" etag="3VJAoho9yxv0_N_YATzC" version="13.9.6" type="github">
  <diagram id="C5RBs43oDa-KdzZeNtuy" name="Page-1">
    <mxGraphModel dx="2523" dy="483" grid="1" gridSize="10" guides="1" tooltips="1" connect="1" arrows="1" fold="1" page="1" pageScale="1" pageWidth="1654" pageHeight="1169" math="0" shadow="0">
      <root>
        <mxCell id="WIyWlLk6GJQsqaUBKTNV-0" />
        <mxCell id="WIyWlLk6GJQsqaUBKTNV-1" parent="WIyWlLk6GJQsqaUBKTNV-0" />
        <mxCell id="rni8tC35Q871cZvnRtiC-0" value="Mesh" style="swimlane;fontStyle=1;align=center;verticalAlign=top;childLayout=stackLayout;horizontal=1;startSize=26;horizontalStack=0;resizeParent=1;resizeParentMax=0;resizeLast=0;collapsible=1;marginBottom=0;" parent="WIyWlLk6GJQsqaUBKTNV-1" vertex="1">
          <mxGeometry x="-1080" y="900" width="240" height="140" as="geometry" />
        </mxCell>
        <mxCell id="rni8tC35Q871cZvnRtiC-1" value="+ triangles: vector&lt;Triangle*&gt;&#xa;+ nodes: vector&lt;Node*&gt;" style="text;strokeColor=none;fillColor=none;align=left;verticalAlign=top;spacingLeft=4;spacingRight=4;overflow=hidden;rotatable=0;points=[[0,0.5],[1,0.5]];portConstraint=eastwest;" parent="rni8tC35Q871cZvnRtiC-0" vertex="1">
          <mxGeometry y="26" width="240" height="44" as="geometry" />
        </mxCell>
        <mxCell id="rni8tC35Q871cZvnRtiC-2" value="" style="line;strokeWidth=1;fillColor=none;align=left;verticalAlign=middle;spacingTop=-1;spacingLeft=3;spacingRight=3;rotatable=0;labelPosition=right;points=[];portConstraint=eastwest;" parent="rni8tC35Q871cZvnRtiC-0" vertex="1">
          <mxGeometry y="70" width="240" height="8" as="geometry" />
        </mxCell>
        <mxCell id="rni8tC35Q871cZvnRtiC-3" value="+ loadSTL(QString): bool&#xa;+ minimumDistance(double[3]): double&#xa;- clean()" style="text;strokeColor=none;fillColor=none;align=left;verticalAlign=top;spacingLeft=4;spacingRight=4;overflow=hidden;rotatable=0;points=[[0,0.5],[1,0.5]];portConstraint=eastwest;" parent="rni8tC35Q871cZvnRtiC-0" vertex="1">
          <mxGeometry y="78" width="240" height="62" as="geometry" />
        </mxCell>
        <mxCell id="rni8tC35Q871cZvnRtiC-4" value="Triangle" style="swimlane;fontStyle=1;align=center;verticalAlign=top;childLayout=stackLayout;horizontal=1;startSize=26;horizontalStack=0;resizeParent=1;resizeParentMax=0;resizeLast=0;collapsible=1;marginBottom=0;" parent="WIyWlLk6GJQsqaUBKTNV-1" vertex="1">
          <mxGeometry x="-760" y="920" width="160" height="120" as="geometry" />
        </mxCell>
        <mxCell id="rni8tC35Q871cZvnRtiC-5" value="+ nodes: array[3]&lt;Node*&gt;&#xa;+ normal: double[3]" style="text;strokeColor=none;fillColor=none;align=left;verticalAlign=top;spacingLeft=4;spacingRight=4;overflow=hidden;rotatable=0;points=[[0,0.5],[1,0.5]];portConstraint=eastwest;" parent="rni8tC35Q871cZvnRtiC-4" vertex="1">
          <mxGeometry y="26" width="160" height="54" as="geometry" />
        </mxCell>
        <mxCell id="rni8tC35Q871cZvnRtiC-6" value="" style="line;strokeWidth=1;fillColor=none;align=left;verticalAlign=middle;spacingTop=-1;spacingLeft=3;spacingRight=3;rotatable=0;labelPosition=right;points=[];portConstraint=eastwest;" parent="rni8tC35Q871cZvnRtiC-4" vertex="1">
          <mxGeometry y="80" width="160" height="8" as="geometry" />
        </mxCell>
        <mxCell id="rni8tC35Q871cZvnRtiC-7" value=" " style="text;strokeColor=none;fillColor=none;align=left;verticalAlign=top;spacingLeft=4;spacingRight=4;overflow=hidden;rotatable=0;points=[[0,0.5],[1,0.5]];portConstraint=eastwest;" parent="rni8tC35Q871cZvnRtiC-4" vertex="1">
          <mxGeometry y="88" width="160" height="32" as="geometry" />
        </mxCell>
        <mxCell id="rni8tC35Q871cZvnRtiC-8" value="Node" style="swimlane;fontStyle=1;align=center;verticalAlign=top;childLayout=stackLayout;horizontal=1;startSize=26;horizontalStack=0;resizeParent=1;resizeParentMax=0;resizeLast=0;collapsible=1;marginBottom=0;" parent="WIyWlLk6GJQsqaUBKTNV-1" vertex="1">
          <mxGeometry x="-520" y="920" width="160" height="120" as="geometry" />
        </mxCell>
        <mxCell id="rni8tC35Q871cZvnRtiC-9" value="+ coo: double[3]" style="text;strokeColor=none;fillColor=none;align=left;verticalAlign=top;spacingLeft=4;spacingRight=4;overflow=hidden;rotatable=0;points=[[0,0.5],[1,0.5]];portConstraint=eastwest;" parent="rni8tC35Q871cZvnRtiC-8" vertex="1">
          <mxGeometry y="26" width="160" height="54" as="geometry" />
        </mxCell>
        <mxCell id="rni8tC35Q871cZvnRtiC-10" value="" style="line;strokeWidth=1;fillColor=none;align=left;verticalAlign=middle;spacingTop=-1;spacingLeft=3;spacingRight=3;rotatable=0;labelPosition=right;points=[];portConstraint=eastwest;" parent="rni8tC35Q871cZvnRtiC-8" vertex="1">
          <mxGeometry y="80" width="160" height="8" as="geometry" />
        </mxCell>
        <mxCell id="rni8tC35Q871cZvnRtiC-11" value=" " style="text;strokeColor=none;fillColor=none;align=left;verticalAlign=top;spacingLeft=4;spacingRight=4;overflow=hidden;rotatable=0;points=[[0,0.5],[1,0.5]];portConstraint=eastwest;" parent="rni8tC35Q871cZvnRtiC-8" vertex="1">
          <mxGeometry y="88" width="160" height="32" as="geometry" />
        </mxCell>
        <mxCell id="rni8tC35Q871cZvnRtiC-15" value="Data &lt;&lt;singleton&gt;&gt;" style="swimlane;fontStyle=1;align=center;verticalAlign=top;childLayout=stackLayout;horizontal=1;startSize=26;horizontalStack=0;resizeParent=1;resizeParentMax=0;resizeLast=0;collapsible=1;marginBottom=0;" parent="WIyWlLk6GJQsqaUBKTNV-1" vertex="1">
          <mxGeometry x="-1400" y="840" width="240" height="200" as="geometry" />
        </mxCell>
        <mxCell id="rni8tC35Q871cZvnRtiC-16" value="- m_meshList: QMap&lt;QString, Mesh*&gt;&#xa;- &lt;&lt;static&gt;&gt; m_instance: Data*&#xa;" style="text;strokeColor=none;fillColor=none;align=left;verticalAlign=top;spacingLeft=4;spacingRight=4;overflow=hidden;rotatable=0;points=[[0,0.5],[1,0.5]];portConstraint=eastwest;" parent="rni8tC35Q871cZvnRtiC-15" vertex="1">
          <mxGeometry y="26" width="240" height="54" as="geometry" />
        </mxCell>
        <mxCell id="rni8tC35Q871cZvnRtiC-17" value="" style="line;strokeWidth=1;fillColor=none;align=left;verticalAlign=middle;spacingTop=-1;spacingLeft=3;spacingRight=3;rotatable=0;labelPosition=right;points=[];portConstraint=eastwest;" parent="rni8tC35Q871cZvnRtiC-15" vertex="1">
          <mxGeometry y="80" width="240" height="8" as="geometry" />
        </mxCell>
        <mxCell id="rni8tC35Q871cZvnRtiC-18" value="- constructor&#xa;+ &lt;&lt;static&gt;&gt; instance: Data*&#xa;+ addNewMesh(QString, Mesh*) void&#xa;+ getMeshList(): QStringList&#xa;+ getMesh(QString): Mesh*" style="text;strokeColor=none;fillColor=none;align=left;verticalAlign=top;spacingLeft=4;spacingRight=4;overflow=hidden;rotatable=0;points=[[0,0.5],[1,0.5]];portConstraint=eastwest;" parent="rni8tC35Q871cZvnRtiC-15" vertex="1">
          <mxGeometry y="88" width="240" height="112" as="geometry" />
        </mxCell>
        <mxCell id="rni8tC35Q871cZvnRtiC-19" value="GLWidget" style="swimlane;fontStyle=1;align=center;verticalAlign=top;childLayout=stackLayout;horizontal=1;startSize=26;horizontalStack=0;resizeParent=1;resizeParentMax=0;resizeLast=0;collapsible=1;marginBottom=0;" parent="WIyWlLk6GJQsqaUBKTNV-1" vertex="1">
          <mxGeometry x="-920" y="200" width="320" height="560" as="geometry" />
        </mxCell>
        <mxCell id="rni8tC35Q871cZvnRtiC-20" value="- xRot: int&#xa;- yRot: int&#xa;- zRot: int&#xa;- xTranslation: double&#xa;- yTranslation: double&#xa;- zTranslation: double&#xa;- m_scaling: double&#xa;- clickedPos: QPoint&#xa;- lastPos: QPoint&#xa;- qtBlack: QColor&#xa;- object: GLuint&#xa;- m_edgesVisible: bool&#xa;- m_transparency: float&#xa;- m_meshName: QString" style="text;strokeColor=none;fillColor=none;align=left;verticalAlign=top;spacingLeft=4;spacingRight=4;overflow=hidden;rotatable=0;points=[[0,0.5],[1,0.5]];portConstraint=eastwest;" parent="rni8tC35Q871cZvnRtiC-19" vertex="1">
          <mxGeometry y="26" width="320" height="214" as="geometry" />
        </mxCell>
        <mxCell id="rni8tC35Q871cZvnRtiC-21" value="" style="line;strokeWidth=1;fillColor=none;align=left;verticalAlign=middle;spacingTop=-1;spacingLeft=3;spacingRight=3;rotatable=0;labelPosition=right;points=[];portConstraint=eastwest;" parent="rni8tC35Q871cZvnRtiC-19" vertex="1">
          <mxGeometry y="240" width="320" height="8" as="geometry" />
        </mxCell>
        <mxCell id="rni8tC35Q871cZvnRtiC-22" value="+ updateObject(): void&#xa;+ setEdgesVisible(bool): void&#xa;+ setTransparency(float): void&#xa;+ setXRotation(int): void&#xa;+ setYRotation(int): void&#xa;+ setXTranslation(double): void&#xa;+ setYTranslation(double): void&#xa;+ setMeshName(QString): void&#xa;# &lt;&lt;override&gt;&gt; initializeGL(): void&#xa;# &lt;&lt;override&gt;&gt; paintGL(): void&#xa;# &lt;&lt;override&gt;&gt; resizeGL(int, int): void&#xa;# &lt;&lt;override&gt;&gt; mousePressEvent(QEvent*): void&#xa;# &lt;&lt;override&gt;&gt; mouseMoveEvent(QEvent*): void&#xa;# &lt;&lt;override&gt;&gt; wheelEvent(QWheelEvent*): void&#xa;- drawCoorSys(int): void&#xa;- drawLineMesh(Mesh*): void&#xa;- drawMesh(Mesh*): void&#xa;- drawBox(double*): void&#xa;- makeObject(): GLuint&#xa;- enableLight(): void&#xa;- disableLight(): void" style="text;strokeColor=none;fillColor=none;align=left;verticalAlign=top;spacingLeft=4;spacingRight=4;overflow=hidden;rotatable=0;points=[[0,0.5],[1,0.5]];portConstraint=eastwest;" parent="rni8tC35Q871cZvnRtiC-19" vertex="1">
          <mxGeometry y="248" width="320" height="312" as="geometry" />
        </mxCell>
        <mxCell id="rni8tC35Q871cZvnRtiC-28" value="MainWidget" style="swimlane;fontStyle=1;align=center;verticalAlign=top;childLayout=stackLayout;horizontal=1;startSize=26;horizontalStack=0;resizeParent=1;resizeParentMax=0;resizeLast=0;collapsible=1;marginBottom=0;" parent="WIyWlLk6GJQsqaUBKTNV-1" vertex="1">
          <mxGeometry x="-1360" y="480" width="240" height="160" as="geometry" />
        </mxCell>
        <mxCell id="rni8tC35Q871cZvnRtiC-29" value="- m_fileDialog: QFileDialog" style="text;strokeColor=none;fillColor=none;align=left;verticalAlign=top;spacingLeft=4;spacingRight=4;overflow=hidden;rotatable=0;points=[[0,0.5],[1,0.5]];portConstraint=eastwest;" parent="rni8tC35Q871cZvnRtiC-28" vertex="1">
          <mxGeometry y="26" width="240" height="24" as="geometry" />
        </mxCell>
        <mxCell id="rni8tC35Q871cZvnRtiC-30" value="" style="line;strokeWidth=1;fillColor=none;align=left;verticalAlign=middle;spacingTop=-1;spacingLeft=3;spacingRight=3;rotatable=0;labelPosition=right;points=[];portConstraint=eastwest;" parent="rni8tC35Q871cZvnRtiC-28" vertex="1">
          <mxGeometry y="50" width="240" height="8" as="geometry" />
        </mxCell>
        <mxCell id="rni8tC35Q871cZvnRtiC-31" value="+ accepted(): void&#xa;+ showEdges(int): void&#xa;+ updateTransparency(int): void&#xa;+ loadMesh(QString): void&#xa;+ updateMeshList(): void&#xa;+ changeMesh(QString): void" style="text;strokeColor=none;fillColor=none;align=left;verticalAlign=top;spacingLeft=4;spacingRight=4;overflow=hidden;rotatable=0;points=[[0,0.5],[1,0.5]];portConstraint=eastwest;" parent="rni8tC35Q871cZvnRtiC-28" vertex="1">
          <mxGeometry y="58" width="240" height="102" as="geometry" />
        </mxCell>
        <mxCell id="rni8tC35Q871cZvnRtiC-32" value="Ui_MainWidget" style="swimlane;fontStyle=1;align=center;verticalAlign=top;childLayout=stackLayout;horizontal=1;startSize=26;horizontalStack=0;resizeParent=1;resizeParentMax=0;resizeLast=0;collapsible=1;marginBottom=0;" parent="WIyWlLk6GJQsqaUBKTNV-1" vertex="1">
          <mxGeometry x="-1240" y="240" width="240" height="160" as="geometry" />
        </mxCell>
        <mxCell id="rni8tC35Q871cZvnRtiC-33" value="+ m_glWidget: GLWidget&#xa;+ m_loadButton: QPushButton&#xa;+ m_showEdgesCheckbox: QCheckBox&#xa;+ m_transparencySlider: QSlider&#xa;+ m_meshesCombobox: QCombobox" style="text;strokeColor=none;fillColor=none;align=left;verticalAlign=top;spacingLeft=4;spacingRight=4;overflow=hidden;rotatable=0;points=[[0,0.5],[1,0.5]];portConstraint=eastwest;" parent="rni8tC35Q871cZvnRtiC-32" vertex="1">
          <mxGeometry y="26" width="240" height="94" as="geometry" />
        </mxCell>
        <mxCell id="rni8tC35Q871cZvnRtiC-34" value="" style="line;strokeWidth=1;fillColor=none;align=left;verticalAlign=middle;spacingTop=-1;spacingLeft=3;spacingRight=3;rotatable=0;labelPosition=right;points=[];portConstraint=eastwest;" parent="rni8tC35Q871cZvnRtiC-32" vertex="1">
          <mxGeometry y="120" width="240" height="8" as="geometry" />
        </mxCell>
        <mxCell id="rni8tC35Q871cZvnRtiC-35" value="+ setupUi(QWidget*): void" style="text;strokeColor=none;fillColor=none;align=left;verticalAlign=top;spacingLeft=4;spacingRight=4;overflow=hidden;rotatable=0;points=[[0,0.5],[1,0.5]];portConstraint=eastwest;" parent="rni8tC35Q871cZvnRtiC-32" vertex="1">
          <mxGeometry y="128" width="240" height="32" as="geometry" />
        </mxCell>
        <mxCell id="rni8tC35Q871cZvnRtiC-37" value="" style="endArrow=block;endSize=16;endFill=0;html=1;" parent="WIyWlLk6GJQsqaUBKTNV-1" source="rni8tC35Q871cZvnRtiC-19" target="rni8tC35Q871cZvnRtiC-73" edge="1">
          <mxGeometry width="160" relative="1" as="geometry">
            <mxPoint x="-780" y="200" as="sourcePoint" />
            <mxPoint x="-870" y="120" as="targetPoint" />
          </mxGeometry>
        </mxCell>
        <mxCell id="rni8tC35Q871cZvnRtiC-38" value="" style="endArrow=block;endSize=16;endFill=0;html=1;exitX=0.5;exitY=0;exitDx=0;exitDy=0;edgeStyle=elbowEdgeStyle;elbow=vertical;rounded=0;" parent="WIyWlLk6GJQsqaUBKTNV-1" source="rni8tC35Q871cZvnRtiC-28" target="rni8tC35Q871cZvnRtiC-32" edge="1">
          <mxGeometry width="160" relative="1" as="geometry">
            <mxPoint x="-1506" y="600" as="sourcePoint" />
            <mxPoint x="-1346" y="600" as="targetPoint" />
            <Array as="points">
              <mxPoint x="-1360" y="440" />
              <mxPoint x="-1330" y="440" />
              <mxPoint x="-1360" y="430" />
              <mxPoint x="-1300" y="440" />
              <mxPoint x="-1360" y="430" />
              <mxPoint x="-1320" y="440" />
              <mxPoint x="-1390" y="400" />
            </Array>
          </mxGeometry>
        </mxCell>
        <mxCell id="rni8tC35Q871cZvnRtiC-39" value="QWidget" style="swimlane;fontStyle=1;align=center;verticalAlign=top;childLayout=stackLayout;horizontal=1;startSize=26;horizontalStack=0;resizeParent=1;resizeParentMax=0;resizeLast=0;collapsible=1;marginBottom=0;" parent="WIyWlLk6GJQsqaUBKTNV-1" vertex="1">
          <mxGeometry x="-1440" y="320" width="160" height="80" as="geometry" />
        </mxCell>
        <mxCell id="rni8tC35Q871cZvnRtiC-40" value=" " style="text;strokeColor=none;fillColor=none;align=left;verticalAlign=top;spacingLeft=4;spacingRight=4;overflow=hidden;rotatable=0;points=[[0,0.5],[1,0.5]];portConstraint=eastwest;" parent="rni8tC35Q871cZvnRtiC-39" vertex="1">
          <mxGeometry y="26" width="160" height="26" as="geometry" />
        </mxCell>
        <mxCell id="rni8tC35Q871cZvnRtiC-41" value="" style="line;strokeWidth=1;fillColor=none;align=left;verticalAlign=middle;spacingTop=-1;spacingLeft=3;spacingRight=3;rotatable=0;labelPosition=right;points=[];portConstraint=eastwest;" parent="rni8tC35Q871cZvnRtiC-39" vertex="1">
          <mxGeometry y="52" width="160" height="8" as="geometry" />
        </mxCell>
        <mxCell id="rni8tC35Q871cZvnRtiC-42" value=" " style="text;strokeColor=none;fillColor=none;align=left;verticalAlign=top;spacingLeft=4;spacingRight=4;overflow=hidden;rotatable=0;points=[[0,0.5],[1,0.5]];portConstraint=eastwest;" parent="rni8tC35Q871cZvnRtiC-39" vertex="1">
          <mxGeometry y="60" width="160" height="20" as="geometry" />
        </mxCell>
        <mxCell id="rni8tC35Q871cZvnRtiC-44" value="" style="endArrow=block;endSize=16;endFill=0;html=1;exitX=0.5;exitY=0;exitDx=0;exitDy=0;edgeStyle=elbowEdgeStyle;elbow=vertical;rounded=0;" parent="WIyWlLk6GJQsqaUBKTNV-1" source="rni8tC35Q871cZvnRtiC-28" target="rni8tC35Q871cZvnRtiC-39" edge="1">
          <mxGeometry width="160" relative="1" as="geometry">
            <mxPoint x="-1340" y="420" as="sourcePoint" />
            <mxPoint x="-1180" y="420" as="targetPoint" />
            <Array as="points">
              <mxPoint x="-1160" y="440" />
              <mxPoint x="-1210" y="440" />
              <mxPoint x="-1230" y="440" />
              <mxPoint x="-1300" y="400" />
              <mxPoint x="-1250" y="380" />
            </Array>
          </mxGeometry>
        </mxCell>
        <mxCell id="rni8tC35Q871cZvnRtiC-48" value="" style="endArrow=none;html=1;endSize=12;startArrow=diamondThin;startSize=20;startFill=1;endFill=0;" parent="WIyWlLk6GJQsqaUBKTNV-1" source="rni8tC35Q871cZvnRtiC-0" target="rni8tC35Q871cZvnRtiC-4" edge="1">
          <mxGeometry relative="1" as="geometry">
            <mxPoint x="-940" y="370" as="sourcePoint" />
            <mxPoint x="-1080" y="370" as="targetPoint" />
          </mxGeometry>
        </mxCell>
        <mxCell id="rni8tC35Q871cZvnRtiC-49" value="1" style="edgeLabel;resizable=0;html=1;align=left;verticalAlign=bottom;labelPosition=right;verticalLabelPosition=top;" parent="rni8tC35Q871cZvnRtiC-48" connectable="0" vertex="1">
          <mxGeometry x="-1" relative="1" as="geometry" />
        </mxCell>
        <mxCell id="rni8tC35Q871cZvnRtiC-50" value="0..n" style="edgeLabel;resizable=0;html=1;align=right;verticalAlign=bottom;labelPosition=left;verticalLabelPosition=top;" parent="rni8tC35Q871cZvnRtiC-48" connectable="0" vertex="1">
          <mxGeometry x="1" relative="1" as="geometry" />
        </mxCell>
        <mxCell id="rni8tC35Q871cZvnRtiC-60" value="" style="endArrow=none;html=1;endSize=12;startArrow=diamondThin;startSize=14;startFill=1;endFill=0;" parent="WIyWlLk6GJQsqaUBKTNV-1" source="rni8tC35Q871cZvnRtiC-32" target="rni8tC35Q871cZvnRtiC-19" edge="1">
          <mxGeometry relative="1" as="geometry">
            <mxPoint x="-990" y="340" as="sourcePoint" />
            <mxPoint x="-860" y="420" as="targetPoint" />
          </mxGeometry>
        </mxCell>
        <mxCell id="rni8tC35Q871cZvnRtiC-61" value="1" style="edgeLabel;resizable=0;html=1;align=left;verticalAlign=bottom;labelPosition=right;verticalLabelPosition=top;" parent="rni8tC35Q871cZvnRtiC-60" connectable="0" vertex="1">
          <mxGeometry x="-1" relative="1" as="geometry" />
        </mxCell>
        <mxCell id="rni8tC35Q871cZvnRtiC-62" value="1" style="edgeLabel;resizable=0;html=1;align=right;verticalAlign=bottom;labelPosition=left;verticalLabelPosition=top;" parent="rni8tC35Q871cZvnRtiC-60" connectable="0" vertex="1">
          <mxGeometry x="1" relative="1" as="geometry" />
        </mxCell>
        <mxCell id="rni8tC35Q871cZvnRtiC-63" value="" style="endArrow=none;html=1;endSize=20;startArrow=diamondThin;startSize=20;startFill=1;endFill=0;" parent="WIyWlLk6GJQsqaUBKTNV-1" source="rni8tC35Q871cZvnRtiC-4" target="rni8tC35Q871cZvnRtiC-8" edge="1">
          <mxGeometry relative="1" as="geometry">
            <mxPoint x="-1280" y="337.9999999999999" as="sourcePoint" />
            <mxPoint x="-1420" y="337.9999999999999" as="targetPoint" />
          </mxGeometry>
        </mxCell>
        <mxCell id="rni8tC35Q871cZvnRtiC-64" value="1" style="edgeLabel;resizable=0;html=1;align=left;verticalAlign=bottom;labelPosition=right;verticalLabelPosition=top;" parent="rni8tC35Q871cZvnRtiC-63" connectable="0" vertex="1">
          <mxGeometry x="-1" relative="1" as="geometry" />
        </mxCell>
        <mxCell id="rni8tC35Q871cZvnRtiC-65" value="3" style="edgeLabel;resizable=0;html=1;align=right;verticalAlign=bottom;labelPosition=left;verticalLabelPosition=top;" parent="rni8tC35Q871cZvnRtiC-63" connectable="0" vertex="1">
          <mxGeometry x="1" relative="1" as="geometry" />
        </mxCell>
        <mxCell id="rni8tC35Q871cZvnRtiC-66" value="" style="endArrow=none;html=1;endSize=12;startArrow=diamondThin;startSize=20;startFill=1;endFill=0;entryX=0;entryY=0.5;entryDx=0;entryDy=0;" parent="WIyWlLk6GJQsqaUBKTNV-1" source="rni8tC35Q871cZvnRtiC-15" target="rni8tC35Q871cZvnRtiC-3" edge="1">
          <mxGeometry relative="1" as="geometry">
            <mxPoint x="-1050" y="430" as="sourcePoint" />
            <mxPoint x="-1170" y="430" as="targetPoint" />
          </mxGeometry>
        </mxCell>
        <mxCell id="rni8tC35Q871cZvnRtiC-67" value="1" style="edgeLabel;resizable=0;html=1;align=left;verticalAlign=bottom;labelPosition=right;verticalLabelPosition=top;" parent="rni8tC35Q871cZvnRtiC-66" connectable="0" vertex="1">
          <mxGeometry x="-1" relative="1" as="geometry" />
        </mxCell>
        <mxCell id="rni8tC35Q871cZvnRtiC-68" value="0..n" style="edgeLabel;resizable=0;html=1;align=right;verticalAlign=bottom;labelPosition=left;verticalLabelPosition=top;" parent="rni8tC35Q871cZvnRtiC-66" connectable="0" vertex="1">
          <mxGeometry x="1" relative="1" as="geometry" />
        </mxCell>
        <mxCell id="rni8tC35Q871cZvnRtiC-70" value="QGLWidget" style="swimlane;fontStyle=1;align=center;verticalAlign=top;childLayout=stackLayout;horizontal=1;startSize=26;horizontalStack=0;resizeParent=1;resizeParentMax=0;resizeLast=0;collapsible=1;marginBottom=0;" parent="WIyWlLk6GJQsqaUBKTNV-1" vertex="1">
          <mxGeometry x="-880" y="80" width="240" height="86" as="geometry" />
        </mxCell>
        <mxCell id="rni8tC35Q871cZvnRtiC-71" value=" " style="text;strokeColor=none;fillColor=none;align=left;verticalAlign=top;spacingLeft=4;spacingRight=4;overflow=hidden;rotatable=0;points=[[0,0.5],[1,0.5]];portConstraint=eastwest;" parent="rni8tC35Q871cZvnRtiC-70" vertex="1">
          <mxGeometry y="26" width="240" height="26" as="geometry" />
        </mxCell>
        <mxCell id="rni8tC35Q871cZvnRtiC-72" value="" style="line;strokeWidth=1;fillColor=none;align=left;verticalAlign=middle;spacingTop=-1;spacingLeft=3;spacingRight=3;rotatable=0;labelPosition=right;points=[];portConstraint=eastwest;" parent="rni8tC35Q871cZvnRtiC-70" vertex="1">
          <mxGeometry y="52" width="240" height="8" as="geometry" />
        </mxCell>
        <mxCell id="rni8tC35Q871cZvnRtiC-73" value=" " style="text;strokeColor=none;fillColor=none;align=left;verticalAlign=top;spacingLeft=4;spacingRight=4;overflow=hidden;rotatable=0;points=[[0,0.5],[1,0.5]];portConstraint=eastwest;" parent="rni8tC35Q871cZvnRtiC-70" vertex="1">
          <mxGeometry y="60" width="240" height="26" as="geometry" />
        </mxCell>
        <mxCell id="rni8tC35Q871cZvnRtiC-77" style="edgeStyle=none;rounded=0;orthogonalLoop=1;jettySize=auto;html=1;exitX=0.5;exitY=0;exitDx=0;exitDy=0;startArrow=diamondThin;startFill=1;startSize=20;endArrow=none;endFill=0;endSize=20;" parent="WIyWlLk6GJQsqaUBKTNV-1" source="rni8tC35Q871cZvnRtiC-4" target="rni8tC35Q871cZvnRtiC-4" edge="1">
          <mxGeometry relative="1" as="geometry" />
        </mxCell>
        <mxCell id="rni8tC35Q871cZvnRtiC-78" value="" style="endArrow=none;html=1;" parent="WIyWlLk6GJQsqaUBKTNV-1" source="rni8tC35Q871cZvnRtiC-15" target="rni8tC35Q871cZvnRtiC-19" edge="1">
          <mxGeometry width="50" height="50" relative="1" as="geometry">
            <mxPoint x="-1250" y="700" as="sourcePoint" />
            <mxPoint x="-1200" y="650" as="targetPoint" />
          </mxGeometry>
        </mxCell>
        <mxCell id="rni8tC35Q871cZvnRtiC-79" value="" style="endArrow=open;endSize=12;dashed=1;html=1;" parent="WIyWlLk6GJQsqaUBKTNV-1" source="rni8tC35Q871cZvnRtiC-19" target="rni8tC35Q871cZvnRtiC-0" edge="1">
          <mxGeometry width="160" relative="1" as="geometry">
            <mxPoint x="-1000" y="870" as="sourcePoint" />
            <mxPoint x="-840" y="870" as="targetPoint" />
          </mxGeometry>
        </mxCell>
        <mxCell id="rni8tC35Q871cZvnRtiC-80" value="" style="endArrow=open;endSize=12;dashed=1;html=1;" parent="WIyWlLk6GJQsqaUBKTNV-1" source="rni8tC35Q871cZvnRtiC-19" target="rni8tC35Q871cZvnRtiC-8" edge="1">
          <mxGeometry width="160" relative="1" as="geometry">
            <mxPoint x="-849.9135991820044" y="760" as="sourcePoint" />
            <mxPoint x="-889.995398773006" y="900" as="targetPoint" />
          </mxGeometry>
        </mxCell>
        <mxCell id="rni8tC35Q871cZvnRtiC-81" value="" style="endArrow=open;endSize=12;dashed=1;html=1;" parent="WIyWlLk6GJQsqaUBKTNV-1" source="rni8tC35Q871cZvnRtiC-19" target="rni8tC35Q871cZvnRtiC-4" edge="1">
          <mxGeometry width="160" relative="1" as="geometry">
            <mxPoint x="-759.9135991820044" y="770" as="sourcePoint" />
            <mxPoint x="-799.995398773006" y="910" as="targetPoint" />
          </mxGeometry>
        </mxCell>
        <mxCell id="rni8tC35Q871cZvnRtiC-83" value="" style="endArrow=none;html=1;" parent="WIyWlLk6GJQsqaUBKTNV-1" source="rni8tC35Q871cZvnRtiC-15" target="rni8tC35Q871cZvnRtiC-28" edge="1">
          <mxGeometry width="50" height="50" relative="1" as="geometry">
            <mxPoint x="-1160" y="848" as="sourcePoint" />
            <mxPoint x="-920" y="627.2" as="targetPoint" />
          </mxGeometry>
        </mxCell>
        <mxCell id="rni8tC35Q871cZvnRtiC-85" value="" style="endArrow=none;html=1;" parent="WIyWlLk6GJQsqaUBKTNV-1" source="rni8tC35Q871cZvnRtiC-19" target="rni8tC35Q871cZvnRtiC-28" edge="1">
          <mxGeometry width="50" height="50" relative="1" as="geometry">
            <mxPoint x="-1245" y="850" as="sourcePoint" />
            <mxPoint x="-1233" y="610" as="targetPoint" />
          </mxGeometry>
        </mxCell>
        <mxCell id="AzGKDolX_vOUwPZVmgVA-0" value="" style="endArrow=none;html=1;endSize=12;startArrow=diamondThin;startSize=20;startFill=1;endFill=0;edgeStyle=orthogonalEdgeStyle;" parent="WIyWlLk6GJQsqaUBKTNV-1" source="rni8tC35Q871cZvnRtiC-0" target="rni8tC35Q871cZvnRtiC-8" edge="1">
          <mxGeometry relative="1" as="geometry">
            <mxPoint x="-870" y="1019.9961538461538" as="sourcePoint" />
            <mxPoint x="-790" y="1023.0730769230771" as="targetPoint" />
            <Array as="points">
              <mxPoint x="-800" y="1010" />
              <mxPoint x="-800" y="1080" />
              <mxPoint x="-560" y="1080" />
              <mxPoint x="-560" y="1020" />
            </Array>
          </mxGeometry>
        </mxCell>
        <mxCell id="AzGKDolX_vOUwPZVmgVA-1" value="1" style="edgeLabel;resizable=0;html=1;align=left;verticalAlign=bottom;labelPosition=right;verticalLabelPosition=top;" parent="AzGKDolX_vOUwPZVmgVA-0" connectable="0" vertex="1">
          <mxGeometry x="-1" relative="1" as="geometry" />
        </mxCell>
        <mxCell id="AzGKDolX_vOUwPZVmgVA-2" value="0..n" style="edgeLabel;resizable=0;html=1;align=right;verticalAlign=bottom;labelPosition=left;verticalLabelPosition=top;" parent="AzGKDolX_vOUwPZVmgVA-0" connectable="0" vertex="1">
          <mxGeometry x="1" relative="1" as="geometry" />
        </mxCell>
      </root>
    </mxGraphModel>
  </diagram>
</mxfile>
